<svg id="Layer_1" enable-background="new 0 0 512 512" height="512" viewBox="0 0 512 512" width="512" xmlns="http://www.w3.org/2000/svg"><g><path d="m256 7.5v497c4.966 0 9.355-2.424 12.085-6.141.021 0 140.047-191.036 140.047-191.036 22.853-31.196 36.368-69.679 36.368-111.323 0-104.106-84.394-188.5-188.5-188.5z" fill="#f0224e"/><path d="m266.162 498.359c.017 0 117.759-191.036 117.759-191.036 19.215-31.196 30.579-69.679 30.579-111.323 0-104.106-70.963-188.5-158.5-188.5-104.106 0-188.5 84.394-188.5 188.5 0 41.644 13.515 80.127 36.383 111.322-.016 0 140.011 191.036 140.011 191.036 2.751 3.718 7.14 6.141 12.106 6.141 4.176.001 7.866-2.423 10.162-6.14z" fill="#ff4c50"/><circle cx="256" cy="196" fill="#fff" r="128.5"/><path d="m256 97.5v90c24.853 0 45-20.147 45-45s-20.147-45-45-45z" fill="#1b74d6"/><path d="m271 142.5c0-24.853-6.716-45-15-45-24.853 0-45 20.147-45 45s20.147 45 45 45c8.284 0 15-20.147 15-45z" fill="#1e8aff"/><path d="m203.496 217.5c-16.5 0-30 13.5-30 30v2.316c7.756 11.867 18.005 21.955 30 29.529l30-61.845z" fill="#54a5ff"/><path d="m308.504 217.5h-30l30 61.845c11.995-7.574 22.244-17.662 30-29.529v-2.316c0-16.5-13.5-30-30-30z" fill="#1b74d6"/><path d="m278.504 217.5h-45.009c-16.5 0-30 13.5-30 30v31.845c15.199 9.597 33.201 15.155 52.505 15.155s37.306-5.558 52.504-15.155v-31.845c0-16.5-13.5-30-30-30z" fill="#1e8aff"/><path d="m256 332c74.99 0 136-61.009 136-136s-61.01-136-136-136c-74.991 0-136 61.009-136 136s61.009 136 136 136zm0-257c66.72 0 121 54.28 121 121s-54.28 121-121 121-121-54.28-121-121 54.28-121 121-121z"/><path d="m256 195c28.948 0 52.5-23.551 52.5-52.5s-23.552-52.5-52.5-52.5c-28.949 0-52.5 23.551-52.5 52.5s23.551 52.5 52.5 52.5zm0-90c20.678 0 37.5 16.822 37.5 37.5s-16.822 37.5-37.5 37.5-37.5-16.822-37.5-37.5 16.822-37.5 37.5-37.5z"/><path d="m256 302c35.915 0 69.104-17.974 88.782-48.08.797-1.22 1.222-2.646 1.222-4.104v-2.316c0-20.678-16.822-37.5-37.5-37.5h-105.008c-20.678 0-37.5 16.822-37.5 37.5v2.316c0 1.458.425 2.883 1.222 4.104 19.678 30.106 52.867 48.08 88.782 48.08zm-75.004-54.5c0-12.407 10.093-22.5 22.5-22.5h105.008c12.406 0 22.5 10.093 22.5 22.5-17.028 24.789-44.903 39.5-75.004 39.5s-57.975-14.711-75.004-39.5z"/><path d="m256 0c-46.574 0-91.72 16.63-127.122 46.826-3.151 2.688-3.527 7.422-.839 10.573s7.422 3.526 10.573.839c32.69-27.883 74.379-43.238 117.388-43.238 99.804 0 181 81.196 181 181 0 38.745-12.074 75.707-34.916 106.888-1.382 1.885-137.828 188.037-139.994 190.964-.016.022-.032.044-.049.066-1.438 1.958-3.64 3.081-6.041 3.081-2.403 0-4.618-1.131-6.057-3.076-1.383-1.887-138.122-188.437-139.968-190.978-.014-.02-.028-.04-.042-.059-22.854-31.172-34.933-68.134-34.933-106.886 0-43.009 15.355-84.698 43.238-117.388 2.688-3.151 2.313-7.885-.839-10.573-3.152-2.689-7.885-2.313-10.573.839-30.196 35.402-46.826 80.548-46.826 127.122 0 41.964 13.083 81.992 37.834 115.756l.046-.034c.462.73 139.984 191.096 139.984 191.096 4.254 5.75 11.033 9.182 18.136 9.182 7.121 0 13.898-3.44 18.131-9.202.484-.658 140.052-191.043 140.052-191.043 24.74-33.773 37.817-73.8 37.817-115.755 0-108.075-87.925-196-196-196z"/></g></svg>